<svg width="1200" height="1200" viewBox="0 0 1200 1200" xmlns="http://www.w3.org/2000/svg" fill="none">
  <defs>
    <linearGradient id="g" x1="0" y1="0" x2="1" y2="1">
      <stop offset="0%" stop-color="#22d3ee" stop-opacity="0.22"/>
      <stop offset="100%" stop-color="#34d399" stop-opacity="0.12"/>
    </linearGradient>
  </defs>
  <rect width="1200" height="1200" fill="#020617"/>
  <g opacity="0.4" stroke="url(#g)" stroke-width="1.2">
    <path d="M-80 200c180 60 320 20 480-80s320-160 520-40 320 360 520 360" />
    <path d="M-100 460c210-40 360-180 520-260s320-60 480 40 320 320 520 320" />
    <path d="M-40 720c180-140 340-100 520-40s320 80 520-40 320-400 520-400" />
    <path d="M-120 980c240-160 400-120 560-40s320 180 520 80 320-420 520-420" />
  </g>
  <g opacity="0.12" stroke="#38bdf8" stroke-width="0.6">
    <circle cx="200" cy="240" r="2" />
    <circle cx="520" cy="420" r="2" />
    <circle cx="840" cy="140" r="2" />
    <circle cx="1080" cy="600" r="2" />
    <circle cx="760" cy="900" r="2" />
    <circle cx="360" cy="880" r="2" />
  </g>
</svg>
